<?xml version="1.0" encoding="UTF-8"?><svg id="a" xmlns="http://www.w3.org/2000/svg" viewBox="0 0 1024 1024"><path d="M541.9804,497.1058c6.1655-6.3723,26.4923-11.6736,35.3973-13.0582,24.8414-3.8627,51.5847-.7414,72.4662,13.8965,5.9002,4.136,19.1642,16.2792,18.1438,23.9442-2.2471,16.8785-26.5183-5.982-31.918-9.1709-17.514-10.3431-39.0305-11.7426-58.9567-8.9531-10.9897,1.5385-21.227,6.9214-32.7536,3.759-5.6258-1.5435-6.2058-6.4622-2.3788-10.4175Z" fill="#00aeef"/><path d="M658.1113,144.5495c.3881.3038.3729,1.5314,1.0388,1.6079,10.3533-4.7161,19.9489-9.077,31.3291-11.5556,59.1149-12.875,106.7971,14.185,123.6059,72.2249,7.1803,24.7932,6.5492,54.0789,29.9456,69.9568,16.6778,11.3183,36.4137,17.1406,52.736,30.1833,33.9894,27.1598,42.1359,72.6239,23.6727,111.5426-9.6722,20.3881-33.8178,44.0726-10.6887,65.2877,15.8167,14.5078,32.1864,17.8046,45.2918,38.6263,25.7726,40.9472,4.9505,76.1345-22.2751,108.2192-8.8073,10.3792-22.3265,21.5557-29.71,33.2281-20.7938,32.8724,10.2782,57.6779,43.0963,38.1012,8.1685-4.8727,21.8023-19.5666,16.7808,1.7945-16.2437,69.0989-107.5909,95.7906-152.246,37.4495-1.1843-1.5472-1.8093-3.7817-2.364-5.6461-3.4003-2.3302-9.2947,8.7304-10.149,11.2354-7.2331,21.2074,3.9159,43.4191,25.9617,48.385,5.8531,1.3184,14.4003.2638,18.5023,1.4785,9.875,2.9244-5.7356,16.6412-9.3572,19.2101-28.2122,20.0113-71.1734,22.5227-102.5051,8.7339-17.3077-7.6169-29.1518-20.7459-40.9319-34.9834-9.1131,4.9832-17.0824,11.7335-26.6545,16.0019-19.4152,8.6575-39.9577,9.5511-60.8239,6.5294-8.5372-1.2363-46.2972-12.6436-50.0273-11.5171-.7455.2251-6.7681,5.3229-7.6978,6.3216-17.7691,19.0875-21.1693,59.9448-12.7606,83.6734,1.862,5.2543,11.4951,22.2719,8.3196,26.7769-4.0748,5.7808-31.5733-8.5357-35.5587-13.7917-17.2666-22.7713-5.7559-76.4161,6.4784-100.209,2.6375-5.1293,7.8171-10.5923,10.0179-14.9579.518-1.0275.6808-1.8307.5182-2.9693-3.142-.3702-6.5011-1.8116-9.3495-3.1495-25.6065-12.0268-52.4999-28.5473-67.3874-52.4959-1.9962-3.2111-9.6311-14.7476-1.6321-15.3426,2.5866-.1924,28.7274,17.3514,33.7394,20.1993,37.2451,21.1638,117.9292,55.9682,160.006,51.7677,22.9918-2.2953,37.0325-22.6682,46.3221-41.592,2.8499-5.8054,18.1515-43.2473,15.1322-46.3157-25.3016.1202-62.8302-.9138-80.3423-22.059-2.7831-3.3604-13.1601-18.3457-5.0753-19.9042,8.1654-1.5741,27.9972,10.0311,36.9241,13.031,12.8843,4.3298,38.0311,9.3556,50.5163,3.4935,2.4726-1.161,4.6146-2.5936,5.9523-3.9379,4.8098-4.8339,6.4419-14.6065,6.906-21.1792.3661-5.1851-.9815-11.442.3319-17.6419,4.4999-21.2416,34.2192-16.9446,49.7145-24.2132,7.011-3.2887,8.2621-6.7751,6.5074-14.4956-2.1806-9.5942-14.595-29.2429-19.3489-39.5887-13.1492-28.6163-24.0017-52.2605-22.1616-84.8174.7331-12.9714,4.2692-25.9453,5.0271-38.93,3.2983-56.5067-24.9146-183.317-107.3977-147.3587-32.5803,14.2033-22.618,55.2229-26.5781,83.3146-2.4111,17.1032-9.4481,31.7937-20.8632,44.5626,20.3873-3.2249,39.6455-4.1961,59.9516.4995,14.4184,3.3341,42.2872,16.307,48.4773,30.4367,5.6732,12.9498-11.3693,8.3327-18.2984,6.319-39.2531-11.4075-49.541-19.8477-93.1238-8.769-15.5622,3.9559-33.9519,13.7262-48.6921,16.2373-2.0238.3448-4.1243.4891-6.1533.1378-1.3707-2.7651-.2436-5.3726,1.8883-7.3927.1557-.7725-.8985-.5984-1.4623-.4689-22.6509,5.2022-64.7112,10.4208-79.4761,28.4241-22.3772,27.2853,5.5275,56.8535,14.0447,82.9056,15.5204,47.4738.1186,85.8138-41.0804,111.8421-18.1231,11.4496-46.79,21.1251-55.3419,42.5625-8.6732,21.7416-.9005,44.9686,14.9257,60.9612,3.2242,3.2581,15.6386,11.526,16.8046,14.2335,2.3597,5.4795-12.8847,6.0497-16.8874,6.5828-11.9525,1.5919-24.2199,1.9377-36.2064,3.2556-8.2083,30.9982-26.1412,99.6898-68.56,95.7549-5.4429-.5049-12.0409-2.224-12.2402-8.6504-.155-4.9968,14.8895-17.5469,18.6684-22.1003,10.6196-12.7963,20.7975-32.1899,25.5281-48.1605.9289-3.1359,4.4885-16.0354,3.0785-18.0506-.829-1.1848-24.5082-3.5875-28.5865-4.386-53.2195-10.4194-88.2519-48.8504-90.8759-103.4263-40.795,6.024-80.8708-9.3487-98.0761-48.289-4.6085-10.4303-12.4124-39.5208-7.1032-49.3798,2.6702-4.9584,11.0807,4.6292,13.9389,6.5791,20.6278,14.0721,45.16,10.4476,51.7828-15.8138,10.552-41.8416-35.1307-62.9072-46.9361-97.9266-15.654-46.4357,8.8555-90.8394,45.5208-118.279,18.5405-13.8753,48.6431-22.7639,50.901-49.0015,1.8393-21.3737-4.4431-41.7647-2.0263-63.9659,8.405-77.2113,69.4721-113.0107,143.1866-102.2421,4.2457.6202,27.7766,6.0125,29.1517,5.4574,1.8376-.7418,7.0674-7.8211,8.8119-9.287,67.2476-56.5067,164.4353-81.5097,244.3461-33.7191,16.4561,9.8416,25.5532,21.8152,39.6312,32.8338Z"/><path d="M528.6483,239.0109c-17.3188,6.0093-28.4921,17.8489-35.4486,34.9827-17.7134,43.6283,16.7036,90.5383-40.5124,117.3335-46.2741,21.6708-109.8994,12.9199-120.5756,81.2273-9.0641,57.9929,43.4084,69.7955,43.7727,113.6225.3157,37.9747-47.0495,51.9934-62.2015,81.7399-16.0957,31.5989-3.4519,78.9358,23.1524,101.5661-44.0897,2.2683-94.7189-7.9554-113.3723-52.955-12.0863-29.1572-1.2481-57.2138,1.4764-86.8935l-11.513,10.9547c-27.9281,23.255-82.4921,25.7945-102.3703-8.9616h14.4859c4.5688,0,19.7972-6.1177,24.1702-8.7976,23.7126-14.532,32.4253-42.6908,25.79-69.1352-12.0985-48.2175-66.8453-62.5957-50.9487-122.8606,13.4835-51.1164,84.4553-56.2225,96.9015-101.9043,10.2554-37.6407-13.1439-68.3535,9.0656-107.8202,23.7232-42.1565,75.2016-52.0364,119.8437-50.0741,6.4691.2844,16.6898,3.5607,22.7218,1.8264,2.4924-.7166,11.6082-9.8051,14.8031-12.171,44.8374-33.2043,91.422-45.3936,147.3266-42.5673,46.0157,2.3264,85.1021,25.7475,115.802,58.7121,33.0859-21.3492,83.3004-22.4656,113.4147,4.7171,26.7546,24.15,23.7232,69.7547,41.7899,98.0029,30.5969,47.84,100.1082,54.2935,83.2021,122.9242-6.599,26.7889-34.8643,57.1264-31.9901,81.6838,3.8746,33.1053,57.3682,29.5412,67.9756,69.8906,16.3158,62.0633-64.2699,84.73-59.0821,137.0051,2.2295,22.4657,24.914,43.918,47.9393,42.9637-34.4102,26.0438-76.7745,7.9328-92.6708-29.201-1.7634-4.1194-2.6468-8.8378-4.1244-12.8828-.2816-.7709.1767-2.045-1.5855-1.356-1.5303.5984-10.6232,7.835-12.5182,9.4658-26.5843,22.8798-47.8732,65.435-21.3621,96.3124l10.377,9.0837c-29.2789,7.6099-61.7832-8.0182-76.4356-33.9363-10.3641-18.3326-3.3293-21.3075,2.5342-38.4614,4.6699-13.6621,9.8975-29.1589,12.6732-43.2721,2.1923-11.1466,2.9102-36.2913,7.0793-44.87,4.4719-9.2019,37.0067-14.4566,48.0756-22.8551,13.9235-10.5645,15.5608-19.1147,9.2579-35.0591-11.6158-29.3846-32.7793-55.3429-38.6771-88.199-3.525-19.6372,1.6813-38.7805,2.5734-58.4364,2.7651-60.9241-17.0704-178.1561-89.9026-191.9046-46.4008-8.7591-82.8905,16.9226-92.4951,62.4552-5.5523,26.3215-.1209,51.438-15.8183,75.0929-35.984,54.2257-123.1517,25.6654-151.3408,87.426-21.875,47.9266,41.2834,83.8045,19.8589,141.7399-16.1709,43.729-64.4277,40.6601-87.1622,75.6787-3.4144,5.2593-5.3807,11.5437-8.5224,16.4203-.6355.9864.115,1.7738-2.2411,1.2885v-15.4849c0-32.7928,67.3064-53.2786,70.9158-98.9192,4.533-57.319-66.6017-71.9916-41.1252-134.0337,22.5186-54.839,101.4876-29.0428,138.4586-77.3307,32.0918-41.9151-2.8515-80.6067,17.0249-120.8404,2.8223-5.7129,9.5634-15.8678,13.5318-20.9346.8772-1.7005-.2881-2.6654-1.998-1.998Z" fill="#fe6500"/><path d="M528.6483,239.0109c1.7043-.5914,3.5198-2.6407,5.994-1.988-.3355,1.916-3.174,2.9366-3.996,3.986.2399-2.1229.1249-2.238-1.998-1.998Z" fill="#401b00"/></svg>